<?xml version="1.0" encoding="UTF-8"?>
<svg width="370px" height="112px" viewBox="0 0 370 112" version="1.1" xmlns="http://www.w3.org/2000/svg" xmlns:xlink="http://www.w3.org/1999/xlink">
    <!-- Generator: Sketch 54.1 (76490) - https://sketchapp.com -->
    <title>LOGO</title>
    <desc>Created with Sketch.</desc>
    <defs>
        <path d="M26.9428217,-1 L27.9428217,-1 C32.9133845,-1 36.9428217,3.02943725 36.9428217,8 L36.9428217,56 L17.9428217,56 L17.9428217,8 C17.9428217,3.02943725 21.972259,-1 26.9428217,-1 Z" id="path-1"></path>
        <filter x="-72.0%" y="-72.0%" width="244.0%" height="244.0%" filterUnits="objectBoundingBox" id="filter-3">
            <feGaussianBlur stdDeviation="6" in="SourceGraphic"></feGaussianBlur>
        </filter>
        <path d="M26.9428217,-1 L27.9428217,-1 C32.9133845,-1 36.9428217,3.02943725 36.9428217,8 L36.9428217,56 L17.9428217,56 L17.9428217,8 C17.9428217,3.02943725 21.972259,-1 26.9428217,-1 Z" id="path-4"></path>
        <filter x="-72.0%" y="-72.0%" width="244.0%" height="244.0%" filterUnits="objectBoundingBox" id="filter-6">
            <feGaussianBlur stdDeviation="6" in="SourceGraphic"></feGaussianBlur>
        </filter>
    </defs>
    <g id="Page-1" stroke="none" stroke-width="1" fill="none" fill-rule="evenodd">
        <g id="Artboard" transform="translate(-215.000000, -219.000000)">
            <g id="LOGO" transform="translate(214.000000, 215.000000)">
                <path d="M17.616,105.688 C17.616,110.704 15.384,115.312 9.48,115.312 C3.696,115.312 1.32,110.68 1.32,105.688 C1.32,100.6 3.768,96.184 9.504,96.184 C15.312,96.184 17.616,100.6 17.616,105.688 Z M3.984,105.688 C3.984,110.296 6.024,113.056 9.48,113.056 C12.984,113.056 14.952,110.296 14.952,105.688 C14.952,101.104 13.008,98.44 9.504,98.44 C6.048,98.44 3.984,101.104 3.984,105.688 Z M36.024,97.576 L36.024,113.512 C36.024,114.616 35.592,115.168 34.728,115.168 C33.648,115.168 33.336,114.592 32.688,113.656 L25.416,103 C24.744,102.016 24,100.648 23.376,99.472 C23.424,100.744 23.568,102.232 23.592,103.504 L23.712,113.944 C23.712,114.76 23.256,115.168 22.368,115.168 C21.504,115.168 21.096,114.76 21.096,113.944 L21.096,97.96 C21.096,96.88 21.6,96.328 22.608,96.328 C23.688,96.328 24.168,96.976 24.744,97.816 L31.896,108.304 C32.592,109.312 33.312,110.848 33.816,111.904 C33.696,110.752 33.552,109.144 33.528,107.896 L33.408,97.576 C33.408,96.76 33.84,96.328 34.704,96.328 C35.592,96.328 36.024,96.76 36.024,97.576 Z M43.056,97.576 L43.056,111.976 C43.056,112.48 43.296,112.72 43.776,112.72 L52.272,112.72 C53.112,112.72 53.52,113.128 53.52,113.872 C53.52,114.592 53.112,115 52.272,115 L43.344,115 C41.088,115 40.344,114.256 40.344,112.24 L40.344,97.576 C40.344,96.76 40.8,96.328 41.688,96.328 C42.624,96.328 43.056,96.76 43.056,97.576 Z M58.872,97.576 L58.872,113.944 C58.872,114.76 58.416,115.168 57.504,115.168 C56.616,115.168 56.16,114.76 56.16,113.944 L56.16,97.576 C56.16,96.76 56.616,96.328 57.504,96.328 C58.416,96.328 58.872,96.76 58.872,97.576 Z M78.12,97.576 L78.12,113.512 C78.12,114.616 77.688,115.168 76.824,115.168 C75.744,115.168 75.432,114.592 74.784,113.656 L67.512,103 C66.84,102.016 66.096,100.648 65.472,99.472 C65.52,100.744 65.664,102.232 65.688,103.504 L65.808,113.944 C65.808,114.76 65.352,115.168 64.464,115.168 C63.6,115.168 63.192,114.76 63.192,113.944 L63.192,97.96 C63.192,96.88 63.696,96.328 64.704,96.328 C65.784,96.328 66.264,96.976 66.84,97.816 L73.992,108.304 C74.688,109.312 75.408,110.848 75.912,111.904 C75.792,110.752 75.648,109.144 75.624,107.896 L75.504,97.576 C75.504,96.76 75.936,96.328 76.8,96.328 C77.688,96.328 78.12,96.76 78.12,97.576 Z M82.44,112.24 L82.44,99.232 C82.44,97.192 83.184,96.472 85.44,96.472 L94.272,96.472 C95.064,96.472 95.472,96.856 95.472,97.552 C95.472,98.296 95.064,98.704 94.272,98.704 L85.824,98.704 C85.344,98.704 85.104,98.944 85.104,99.424 L85.104,104.104 L92.016,104.104 C92.856,104.104 93.264,104.488 93.264,105.208 C93.264,105.928 92.856,106.312 92.016,106.312 L85.104,106.312 L85.104,112 C85.104,112.504 85.344,112.744 85.824,112.744 L94.608,112.744 C95.448,112.744 95.856,113.152 95.856,113.896 C95.856,114.616 95.448,115 94.608,115 L85.44,115 C83.184,115 82.44,114.256 82.44,112.24 Z M114.648,108.952 L114.648,97.576 C114.648,96.76 115.08,96.328 115.968,96.328 C116.88,96.328 117.336,96.76 117.336,97.576 L117.336,109.072 C117.336,111.784 115.968,115.312 111.312,115.312 C107.88,115.312 105.84,113.872 105.096,111.016 C105.048,110.872 105.048,110.728 105.048,110.608 C105.048,109.84 105.72,109.48 106.584,109.48 C107.136,109.48 107.592,109.72 107.784,110.488 C108.216,112.216 109.392,113.056 111.312,113.056 C113.328,113.056 114.648,111.616 114.648,108.952 Z M127.968,104.08 L128.784,104.272 C132.984,105.256 134.4,106.816 134.4,110.032 C134.4,113.104 131.76,115.312 127.728,115.312 C123.432,115.312 121.128,113.008 120.816,110.344 C120.816,110.272 120.792,110.176 120.792,110.104 C120.792,109.336 121.44,108.928 122.328,108.928 C122.904,108.928 123.432,109.192 123.528,109.984 C123.792,112.048 125.184,113.08 127.728,113.08 C130.128,113.08 131.76,111.928 131.76,110.032 C131.76,108.352 131.112,107.416 127.92,106.672 L127.08,106.48 C123.528,105.64 121.32,104.56 121.32,101.032 C121.32,98.08 123.744,96.184 127.512,96.184 C131.04,96.184 133.128,97.6 133.752,100.456 C133.776,100.624 133.8,100.792 133.8,100.912 C133.8,101.608 133.248,102.064 132.312,102.064 C131.736,102.064 131.256,101.8 131.112,101.104 C130.704,99.304 129.552,98.416 127.536,98.416 C125.16,98.416 123.96,99.28 123.96,101.032 C123.96,102.664 124.824,103.336 127.968,104.08 Z M153.048,96.184 C156.984,96.184 159.168,98.44 159.96,100.576 C160.056,100.84 160.104,101.056 160.104,101.248 C160.104,101.92 159.504,102.424 158.688,102.424 C158.184,102.424 157.704,102.184 157.44,101.464 C156.792,99.712 155.472,98.44 153.048,98.44 C149.688,98.44 147.624,101.152 147.624,105.688 C147.624,110.368 149.76,113.056 153.024,113.056 C155.304,113.056 156.816,111.856 157.632,109.432 C157.872,108.736 158.256,108.424 158.856,108.424 C159.672,108.424 160.32,108.904 160.32,109.576 C160.32,109.744 160.296,109.984 160.2,110.224 C159.024,113.632 156.624,115.312 153.024,115.312 C147.576,115.312 144.96,111.112 144.96,105.688 C144.96,100.648 147.36,96.184 153.048,96.184 Z M178.848,105.688 C178.848,110.704 176.616,115.312 170.712,115.312 C164.928,115.312 162.552,110.68 162.552,105.688 C162.552,100.6 165,96.184 170.736,96.184 C176.544,96.184 178.848,100.6 178.848,105.688 Z M165.216,105.688 C165.216,110.296 167.256,113.056 170.712,113.056 C174.216,113.056 176.184,110.296 176.184,105.688 C176.184,101.104 174.24,98.44 170.736,98.44 C167.28,98.44 165.216,101.104 165.216,105.688 Z M197.088,97.576 L197.088,108.136 C197.088,112.912 194.592,115.312 189.624,115.312 C184.68,115.312 182.208,112.912 182.208,108.136 L182.208,97.576 C182.208,96.76 182.64,96.328 183.528,96.328 C184.44,96.328 184.896,96.76 184.896,97.576 L184.896,108.04 C184.896,111.352 186.48,113.032 189.624,113.032 C192.816,113.032 194.4,111.352 194.4,108.04 L194.4,97.576 C194.4,96.76 194.832,96.328 195.72,96.328 C196.632,96.328 197.088,96.76 197.088,97.576 Z M211.344,106.456 L215.496,113.32 C215.616,113.512 215.664,113.728 215.664,113.944 C215.664,114.664 214.992,115.168 214.224,115.168 C213.792,115.168 213.408,114.952 213.168,114.544 L208.8,106.864 L203.856,106.864 L203.856,113.944 C203.856,114.76 203.448,115.168 202.56,115.168 C201.672,115.168 201.288,114.76 201.288,113.944 L201.288,99.232 C201.288,97.192 202.032,96.472 204.312,96.472 L208.704,96.472 C212.76,96.472 214.776,98.2 214.776,101.632 C214.776,104.032 213.648,105.616 211.344,106.456 Z M208.728,98.68 L204.624,98.68 C204.12,98.68 203.856,98.92 203.856,99.4 L203.856,104.68 L208.68,104.68 C210.96,104.68 212.112,103.672 212.112,101.632 C212.112,99.664 210.984,98.68 208.728,98.68 Z M224.736,104.08 L225.552,104.272 C229.752,105.256 231.168,106.816 231.168,110.032 C231.168,113.104 228.528,115.312 224.496,115.312 C220.2,115.312 217.896,113.008 217.584,110.344 C217.584,110.272 217.56,110.176 217.56,110.104 C217.56,109.336 218.208,108.928 219.096,108.928 C219.672,108.928 220.2,109.192 220.296,109.984 C220.56,112.048 221.952,113.08 224.496,113.08 C226.896,113.08 228.528,111.928 228.528,110.032 C228.528,108.352 227.88,107.416 224.688,106.672 L223.848,106.48 C220.296,105.64 218.088,104.56 218.088,101.032 C218.088,98.08 220.512,96.184 224.28,96.184 C227.808,96.184 229.896,97.6 230.52,100.456 C230.544,100.624 230.568,100.792 230.568,100.912 C230.568,101.608 230.016,102.064 229.08,102.064 C228.504,102.064 228.024,101.8 227.88,101.104 C227.472,99.304 226.32,98.416 224.304,98.416 C221.928,98.416 220.728,99.28 220.728,101.032 C220.728,102.664 221.592,103.336 224.736,104.08 Z M234.576,112.24 L234.576,99.232 C234.576,97.192 235.32,96.472 237.576,96.472 L246.408,96.472 C247.2,96.472 247.608,96.856 247.608,97.552 C247.608,98.296 247.2,98.704 246.408,98.704 L237.96,98.704 C237.48,98.704 237.24,98.944 237.24,99.424 L237.24,104.104 L244.152,104.104 C244.992,104.104 245.4,104.488 245.4,105.208 C245.4,105.928 244.992,106.312 244.152,106.312 L237.24,106.312 L237.24,112 C237.24,112.504 237.48,112.744 237.96,112.744 L246.744,112.744 C247.584,112.744 247.992,113.152 247.992,113.896 C247.992,114.616 247.584,115 246.744,115 L237.576,115 C235.32,115 234.576,114.256 234.576,112.24 Z M268.92,106.456 L273.072,113.32 C273.192,113.512 273.24,113.728 273.24,113.944 C273.24,114.664 272.568,115.168 271.8,115.168 C271.368,115.168 270.984,114.952 270.744,114.544 L266.376,106.864 L261.432,106.864 L261.432,113.944 C261.432,114.76 261.024,115.168 260.136,115.168 C259.248,115.168 258.864,114.76 258.864,113.944 L258.864,99.232 C258.864,97.192 259.608,96.472 261.888,96.472 L266.28,96.472 C270.336,96.472 272.352,98.2 272.352,101.632 C272.352,104.032 271.224,105.616 268.92,106.456 Z M266.304,98.68 L262.2,98.68 C261.696,98.68 261.432,98.92 261.432,99.4 L261.432,104.68 L266.256,104.68 C268.536,104.68 269.688,103.672 269.688,101.632 C269.688,99.664 268.56,98.68 266.304,98.68 Z M276,112.24 L276,99.232 C276,97.192 276.744,96.472 279,96.472 L287.832,96.472 C288.624,96.472 289.032,96.856 289.032,97.552 C289.032,98.296 288.624,98.704 287.832,98.704 L279.384,98.704 C278.904,98.704 278.664,98.944 278.664,99.424 L278.664,104.104 L285.576,104.104 C286.416,104.104 286.824,104.488 286.824,105.208 C286.824,105.928 286.416,106.312 285.576,106.312 L278.664,106.312 L278.664,112 C278.664,112.504 278.904,112.744 279.384,112.744 L288.168,112.744 C289.008,112.744 289.416,113.152 289.416,113.896 C289.416,114.616 289.008,115 288.168,115 L279,115 C276.744,115 276,114.256 276,112.24 Z M300.096,108.76 L304.608,97.12 C304.824,96.544 305.208,96.328 305.712,96.328 C306.504,96.328 307.224,96.736 307.224,97.456 C307.224,97.672 307.176,97.864 307.08,98.104 L300.624,113.896 C300.264,114.76 299.76,115.168 298.968,115.168 C298.104,115.168 297.576,114.76 297.24,113.896 L290.952,98.128 C290.88,97.912 290.832,97.72 290.832,97.528 C290.832,96.784 291.504,96.352 292.392,96.352 C292.92,96.352 293.28,96.592 293.496,97.144 L297.888,108.784 C298.344,109.984 298.608,111.208 298.968,112.264 C299.328,111.208 299.64,109.96 300.096,108.76 Z M312.84,97.576 L312.84,113.944 C312.84,114.76 312.384,115.168 311.472,115.168 C310.584,115.168 310.128,114.76 310.128,113.944 L310.128,97.576 C310.128,96.76 310.584,96.328 311.472,96.328 C312.384,96.328 312.84,96.76 312.84,97.576 Z M317.16,112.24 L317.16,99.232 C317.16,97.192 317.904,96.472 320.16,96.472 L328.992,96.472 C329.784,96.472 330.192,96.856 330.192,97.552 C330.192,98.296 329.784,98.704 328.992,98.704 L320.544,98.704 C320.064,98.704 319.824,98.944 319.824,99.424 L319.824,104.104 L326.736,104.104 C327.576,104.104 327.984,104.488 327.984,105.208 C327.984,105.928 327.576,106.312 326.736,106.312 L319.824,106.312 L319.824,112 C319.824,112.504 320.064,112.744 320.544,112.744 L329.328,112.744 C330.168,112.744 330.576,113.152 330.576,113.896 C330.576,114.616 330.168,115 329.328,115 L320.16,115 C317.904,115 317.16,114.256 317.16,112.24 Z M346.8,113.608 L344.472,104.392 C344.04,102.64 343.8,100.96 343.488,99.28 C343.176,100.936 342.936,102.64 342.48,104.416 L340.152,113.608 C339.888,114.616 339.312,115.144 338.232,115.144 C337.224,115.144 336.648,114.616 336.384,113.608 L332.064,97.816 C332.016,97.672 332.016,97.552 332.016,97.432 C332.016,96.736 332.568,96.328 333.456,96.328 C334.152,96.328 334.536,96.664 334.704,97.312 L337.272,107.512 C337.728,109.288 337.968,111.064 338.304,112.72 C338.688,111.04 338.928,109.288 339.36,107.56 L341.88,97.48 C342.072,96.712 342.528,96.328 343.464,96.328 C344.376,96.328 344.832,96.712 345.024,97.456 L347.616,107.536 C348.072,109.336 348.36,111.088 348.672,112.696 C349.032,111.064 349.32,109.336 349.776,107.536 L352.32,97.312 C352.488,96.616 352.92,96.328 353.568,96.328 C354.432,96.328 354.96,96.76 354.96,97.456 C354.96,97.6 354.936,97.744 354.888,97.912 L350.568,113.608 C350.28,114.616 349.704,115.144 348.648,115.144 C347.616,115.144 347.064,114.616 346.8,113.608 Z M363.912,104.08 L364.728,104.272 C368.928,105.256 370.344,106.816 370.344,110.032 C370.344,113.104 367.704,115.312 363.672,115.312 C359.376,115.312 357.072,113.008 356.76,110.344 C356.76,110.272 356.736,110.176 356.736,110.104 C356.736,109.336 357.384,108.928 358.272,108.928 C358.848,108.928 359.376,109.192 359.472,109.984 C359.736,112.048 361.128,113.08 363.672,113.08 C366.072,113.08 367.704,111.928 367.704,110.032 C367.704,108.352 367.056,107.416 363.864,106.672 L363.024,106.48 C359.472,105.64 357.264,104.56 357.264,101.032 C357.264,98.08 359.688,96.184 363.456,96.184 C366.984,96.184 369.072,97.6 369.696,100.456 C369.72,100.624 369.744,100.792 369.744,100.912 C369.744,101.608 369.192,102.064 368.256,102.064 C367.68,102.064 367.2,101.8 367.056,101.104 C366.648,99.304 365.496,98.416 363.48,98.416 C361.104,98.416 359.904,99.28 359.904,101.032 C359.904,102.664 360.768,103.336 363.912,104.08 Z" id="ONLINEJSCOURSEREVIEWS" fill="#FFFFFF" fill-rule="nonzero"></path>
                <path d="M94.4,50.36 L94.4,17.18 C94.4,14.8 95.66,13.54 98.25,13.54 C100.91,13.54 102.24,14.8 102.24,17.18 L102.24,50.71 C102.24,58.62 98.25,68.91 84.67,68.91 C74.66,68.91 68.71,64.71 66.54,56.38 C66.4,55.96 66.4,55.54 66.4,55.19 C66.4,52.95 68.36,51.9 70.88,51.9 C72.49,51.9 73.82,52.6 74.38,54.84 C75.64,59.88 79.07,62.33 84.67,62.33 C90.55,62.33 94.4,58.13 94.4,50.36 Z M133.25,36.15 L135.63,36.71 C147.88,39.58 152.01,44.13 152.01,53.51 C152.01,62.47 144.31,68.91 132.55,68.91 C120.02,68.91 113.3,62.19 112.39,54.42 C112.39,54.21 112.32,53.93 112.32,53.72 C112.32,51.48 114.21,50.29 116.8,50.29 C118.48,50.29 120.02,51.06 120.3,53.37 C121.07,59.39 125.13,62.4 132.55,62.4 C139.55,62.4 144.31,59.04 144.31,53.51 C144.31,48.61 142.42,45.88 133.11,43.71 L130.66,43.15 C120.3,40.7 113.86,37.55 113.86,27.26 C113.86,18.65 120.93,13.12 131.92,13.12 C142.21,13.12 148.3,17.25 150.12,25.58 C150.19,26.07 150.26,26.56 150.26,26.91 C150.26,28.94 148.65,30.27 145.92,30.27 C144.24,30.27 142.84,29.5 142.42,27.47 C141.23,22.22 137.87,19.63 131.99,19.63 C125.06,19.63 121.56,22.15 121.56,27.26 C121.56,32.02 124.08,33.98 133.25,36.15 Z M170.7,13.96 L183.09,13.96 C194.22,13.96 199.75,18.51 199.75,27.47 C199.75,32.72 197.65,36.43 193.17,38.53 C200.03,40.42 203.25,44.97 203.25,52.11 C203.25,62.68 196.74,68 183.79,68 L170.63,68 C164.05,68 161.95,66.04 161.95,59.95 L161.95,21.94 C161.95,15.99 164.12,13.96 170.7,13.96 Z M169.44,42.52 L169.44,59.32 C169.44,60.79 170.14,61.49 171.47,61.49 L183.93,61.49 C191.63,61.49 195.48,58.27 195.48,51.97 C195.48,45.67 191.63,42.52 184,42.52 L169.44,42.52 Z M183.3,20.4 L171.54,20.4 C170.14,20.4 169.44,21.1 169.44,22.5 L169.44,36.22 L182.88,36.22 C189.18,36.22 192.12,33 192.12,28.1 C192.12,22.99 189.18,20.4 183.3,20.4 Z M237.48,51.83 L216.83,51.83 C217.18,57.5 220.4,63.24 226.84,63.24 C230.55,63.24 233.28,61.28 235.03,57.22 C235.66,55.75 236.78,55.12 238.04,55.12 C239.93,55.12 242.03,56.45 242.03,58.13 C242.03,58.62 241.89,59.11 241.61,59.67 C238.53,65.83 233.7,68.91 226.84,68.91 C216.55,68.91 210.04,61.35 210.04,49.94 C210.04,40.49 215.5,31.11 226.91,31.11 C238.46,31.11 242.45,41.47 242.45,46.72 C242.45,50.15 240.77,51.83 237.48,51.83 Z M217.04,46.23 L234.96,46.23 C235.45,46.23 235.73,45.88 235.73,45.46 L235.66,45.18 C234.61,39.51 231.53,36.71 226.91,36.71 C221.94,36.71 218.09,40.21 217.04,46.23 Z M263.45,46.16 L265.41,46.65 C273.39,48.68 277.03,51.27 277.03,57.92 C277.03,64.36 271.71,68.91 262.61,68.91 C253.37,68.91 248.61,63.94 247.84,59.18 C247.77,58.83 247.77,58.55 247.77,58.27 C247.77,56.38 249.17,55.4 251.76,55.4 C253.72,55.4 254.56,56.38 254.84,58.2 C255.33,61.63 258.62,63.31 262.68,63.31 C267.72,63.31 270.24,61.35 270.24,57.78 C270.24,54.98 268.63,54.14 262.96,52.67 L261.14,52.18 C253.3,50.08 248.89,48.19 248.89,41.19 C248.89,35.24 253.86,31.11 262.4,31.11 C269.68,31.11 274.02,33.77 275.49,39.09 C275.63,39.51 275.63,39.93 275.63,40.28 C275.63,42.03 274.37,43.15 271.85,43.15 C270.38,43.15 269.26,42.59 268.84,40.98 C268.07,38.18 265.97,36.71 262.33,36.71 C257.92,36.71 255.68,38.32 255.68,41.19 C255.68,44.2 257.99,44.83 263.45,46.16 Z M294.88,31.95 L302.02,31.95 C304.26,31.95 305.38,32.93 305.38,34.89 C305.38,36.85 304.26,37.83 302.02,37.83 L294.88,37.83 L294.88,58.13 C294.88,61.07 295.93,62.54 297.96,62.54 C298.87,62.54 299.92,62.33 301.18,61.56 C301.74,61.28 302.23,61.07 302.79,61.07 C304.4,61.07 306.08,62.75 306.08,64.99 C306.08,66.11 305.52,67.09 304.4,67.58 C302.51,68.42 300.55,68.91 297.89,68.91 C291.31,68.91 288.02,65.69 288.02,59.25 L288.02,37.83 L284.59,37.83 C282.35,37.83 281.16,36.85 281.16,34.89 C281.16,32.93 282.35,31.95 284.59,31.95 L288.02,31.95 L288.02,22.15 C288.02,20.05 289.21,19 291.59,19 C293.83,19 294.88,20.05 294.88,22.15 L294.88,31.95 Z" id="JSBest" fill="#FFFFFF" fill-rule="nonzero"></path>
                <g id="lefty" transform="translate(2.000000, 0.000000)">
                    <g id="Rectangle" transform="translate(0.935029, 26.955560)">
                        <mask id="mask-2" fill="white">
                            <use xlink:href="#path-1"></use>
                        </mask>
                        <use id="Mask" fill="#FFEB3B" transform="translate(27.442822, 27.500000) rotate(-225.000000) translate(-27.442822, -27.500000) " xlink:href="#path-1"></use>
                        <rect fill-opacity="0.4" fill="#000000" filter="url(#filter-3)" mask="url(#mask-2)" transform="translate(14.742641, 15.479469) rotate(-315.000000) translate(-14.742641, -15.479469) " x="2.24264069" y="2.97946851" width="25" height="25" rx="8"></rect>
                    </g>
                    <path d="M28,-1 L29,-1 C33.9705627,-1 38,3.02943725 38,8 L38,56 L19,56 L19,8 C19,3.02943725 23.0294373,-1 28,-1 Z" id="Rectangle" fill="#FFEB3B" transform="translate(28.500000, 27.500000) rotate(-315.000000) translate(-28.500000, -27.500000) "></path>
                </g>
                <g id="righty" transform="translate(342.000000, 41.000000) rotate(-180.000000) translate(-342.000000, -41.000000) translate(314.000000, 0.000000)">
                    <g id="Rectangle" transform="translate(0.935029, 26.955560)">
                        <mask id="mask-5" fill="white">
                            <use xlink:href="#path-4"></use>
                        </mask>
                        <use id="Mask" fill="#FFEB3B" transform="translate(27.442822, 27.500000) rotate(-225.000000) translate(-27.442822, -27.500000) " xlink:href="#path-4"></use>
                        <rect fill-opacity="0.4" fill="#000000" filter="url(#filter-6)" mask="url(#mask-5)" transform="translate(14.742641, 15.479469) rotate(-315.000000) translate(-14.742641, -15.479469) " x="2.24264069" y="2.97946851" width="25" height="25" rx="8"></rect>
                    </g>
                    <path d="M28,-1 L29,-1 C33.9705627,-1 38,3.02943725 38,8 L38,56 L19,56 L19,8 C19,3.02943725 23.0294373,-1 28,-1 Z" id="Rectangle" fill="#FFEB3B" transform="translate(28.500000, 27.500000) rotate(-315.000000) translate(-28.500000, -27.500000) "></path>
                </g>
            </g>
        </g>
    </g>
</svg>