<?xml version="1.0" encoding="UTF-8"?>
<svg width="38px" height="37px" viewBox="0 0 38 37" version="1.1" xmlns="http://www.w3.org/2000/svg" xmlns:xlink="http://www.w3.org/1999/xlink">
    <!-- Generator: Sketch 54.1 (76490) - https://sketchapp.com -->
    <title>octcat2</title>
    <desc>Created with Sketch.</desc>
    <g id="Page-1" stroke="none" stroke-width="1" fill="none" fill-rule="evenodd">
        <g id="octcat2" fill="#000000" fill-rule="nonzero">
            <path d="M38,18.9633352 C38,23.0951035 36.7918837,26.8112258 34.375651,30.1117021 C31.9594184,33.4121784 28.8381076,35.6961739 25.0117188,36.9636885 C24.5664062,37.0459946 24.2406684,36.9883803 24.0345052,36.7908456 C23.828342,36.5933108 23.7252604,36.3463924 23.7252604,36.0500903 L23.7252604,30.8401115 C23.7252604,29.2433723 23.296441,28.0746251 22.4388021,27.3338698 C23.3789062,27.2351025 24.2241753,27.0869514 24.9746094,26.8894167 C25.7250434,26.6918819 26.500217,26.370888 27.3001302,25.9264348 C28.1000434,25.4819816 28.7680122,24.9346458 29.3040365,24.2844273 C29.8400608,23.6342087 30.2771267,22.7699942 30.6152344,21.6917838 C30.953342,20.6135733 31.1223958,19.3748659 31.1223958,17.9756615 C31.1223958,15.9838528 30.4709201,14.2883463 29.1679688,12.8891419 C29.7782118,11.3911701 29.7122396,9.71212478 28.9700521,7.85200597 C28.5082465,7.70385491 27.8402778,7.79439167 26.9661458,8.12361624 C26.0920139,8.45284081 25.3333333,8.81498783 24.6901042,9.21005731 L23.75,9.80266154 C22.2161458,9.3746696 20.6328125,9.16067363 19,9.16067363 C17.3671875,9.16067363 15.7838542,9.3746696 14.25,9.80266154 C13.9861111,9.62158802 13.6356337,9.39936144 13.1985677,9.13598179 C12.7615017,8.87260213 12.0729167,8.55572348 11.1328125,8.18534584 C10.1927083,7.8149682 9.48350694,7.70385491 9.00520833,7.85200597 C8.27951389,9.71212478 8.22178819,11.3911701 8.83203125,12.8891419 C7.52907986,14.2883463 6.87760417,15.9838528 6.87760417,17.9756615 C6.87760417,19.3748659 7.04665799,20.609458 7.38476562,21.6794379 C7.72287326,22.7494177 8.15581597,23.6136322 8.68359375,24.2720813 C9.21137153,24.9305305 9.87521701,25.4819816 10.6751302,25.9264348 C11.4750434,26.370888 12.250217,26.6918819 13.000651,26.8894167 C13.7510851,27.0869514 14.5963542,27.2351025 15.5364583,27.3338698 C14.8767361,27.9264741 14.4726562,28.7742273 14.3242188,29.8771296 C13.9778646,30.0417419 13.6067708,30.1652011 13.2109375,30.2475073 C12.8151042,30.3298134 12.3450521,30.3709665 11.8007812,30.3709665 C11.2565104,30.3709665 10.7163628,30.1940083 10.1803385,29.8400919 C9.64431424,29.4861754 9.18663194,28.9717621 8.80729167,28.2968517 C8.49392361,27.7700924 8.09396701,27.3421004 7.60742188,27.0128759 C7.12087674,26.6836513 6.71267361,26.4861166 6.3828125,26.4202716 L5.88802083,26.3461961 C5.54166667,26.3461961 5.30251736,26.3832339 5.17057292,26.4573094 C5.03862847,26.5313849 4.99739583,26.626037 5.046875,26.7412656 C5.09635417,26.8564942 5.17057292,26.9717228 5.26953125,27.0869514 C5.36848958,27.20218 5.47569444,27.3009474 5.59114583,27.3832535 L5.76432292,27.5067127 C6.12717014,27.671325 6.4858941,27.9840884 6.84049479,28.4450027 C7.19509549,28.9059171 7.45486111,29.3256785 7.61979167,29.7042867 L7.8671875,30.2721991 C8.08159722,30.8977258 8.44444444,31.4039086 8.95572917,31.7907474 C9.46701389,32.1775863 10.0195312,32.4245047 10.6132812,32.5315027 C11.2070312,32.6385007 11.7801649,32.696115 12.3326823,32.7043456 C12.8851997,32.7125762 13.3428819,32.6837691 13.7057292,32.6179242 L14.2747396,32.5191568 C14.2747396,33.1446835 14.2788628,33.8772081 14.2871094,34.7167308 C14.2953559,35.5562534 14.2994792,36.0007066 14.2994792,36.0500903 C14.2994792,36.3463924 14.1922743,36.5933108 13.9778646,36.7908456 C13.7634549,36.9883803 13.4335938,37.0459946 12.9882812,36.9636885 C9.16189236,35.6961739 6.0405816,33.4121784 3.62434896,30.1117021 C1.20811632,26.8112258 0,23.0951035 0,18.9633352 C0,15.5229384 0.849392361,12.3500366 2.54817708,9.44462982 C4.24696181,6.539223 6.55186632,4.23876632 9.46289062,2.54325979 C12.3739149,0.847753265 15.5529514,0 19,0 C22.4470486,0 25.6260851,0.847753265 28.5371094,2.54325979 C31.4481337,4.23876632 33.7530382,6.539223 35.4518229,9.44462982 C37.1506076,12.3500366 38,15.5229384 38,18.9633352 Z" id="Path"></path>
        </g>
    </g>
</svg>