<?xml version="1.0" encoding="UTF-8"?>
<svg width="36px" height="40px" viewBox="-4 -4 32 32" version="1.1" xmlns="http://www.w3.org/2000/svg" xmlns:xlink="http://www.w3.org/1999/xlink">
    <path fill="white" d="M-0.0289171007,13.8457031 L23.9710829,13.8457031 C25.0750829,13.8457031 25.9710829,12.9497031 25.9710829,11.8457031 C25.9710829,10.7417031 25.0750829,9.84570312 23.9710829,9.84570312 L-0.0289171007,9.84570312 C-1.1329171,9.84570312 -2.0289171,10.7417031 -2.0289171,11.8457031 C-2.0289171,12.9497031 -1.1329171,13.8457031 -0.0289171007,13.8457031 Z" id="Path" fill="#000000" fill-rule="nonzero" transform="translate(11.971083, 11.845703) rotate(-315.000000) translate(-11.971083, -11.845703) "></path>
    <path fill="white" d="M23.9686144,9.96492513 L-0.0313856337,9.96492513 C-1.13538563,9.96492513 -2.03138563,10.8609251 -2.03138563,11.9649251 C-2.03138563,13.0689251 -1.13538563,13.9649251 -0.0313856337,13.9649251 L23.9686144,13.9649251 C25.0726144,13.9649251 25.9686144,13.0689251 25.9686144,11.9649251 C25.9686144,10.8609251 25.0726144,9.96492513 23.9686144,9.96492513 Z" id="Path" fill="#000000" fill-rule="nonzero" transform="translate(11.968614, 11.964925) rotate(-45.000000) translate(-11.968614, -11.964925) "></path>
</svg>