<svg xmlns="http://www.w3.org/2000/svg" xmlns:xlink="http://www.w3.org/1999/xlink" width="28px" height="26px" viewBox="0 0 31 30" version="1.1">
  <g id="Page-1" stroke="none" fill="none" fill-rule="evenodd">
    <g id="comments-opt" transform="translate(1.000000, 1.000000)" fill="#2680f9">
      <g id="comments" transform="translate(14.500000, 14.000000) scale(-1, 1) translate(-14.500000, -14.000000)">
        <path d="M28.77 23.41L27.06 18.72C27.6 17.21 27.87 15.63 27.87 14 27.88 6.28 21.62 0 13.94 0 6.25 0 0 6.28 0 14 0 21.72 6.25 28 13.94 28 16.72 28 19.45 27.15 21.75 25.59L25.18 26.93C25.62 27.11 26.05 27.2 26.46 27.2 27.32 27.2 28.08 26.81 28.54 26.14 28.84 25.72 29.27 24.79 28.77 23.41ZM26.46 25.29C26.29 25.29 26.1 25.25 25.87 25.16L21.47 23.43C19.41 25.09 16.79 26.09 13.94 26.09 7.29 26.09 1.9 20.68 1.9 14 1.9 7.32 7.29 1.91 13.94 1.91 20.59 1.91 25.98 7.32 25.98 14 25.98 15.67 25.64 17.26 25.03 18.7L26.99 24.06C27.26 24.82 27.03 25.29 26.46 25.29Z" id="Shape" stroke="#2680f9" stroke-width=".25px"/>
        <circle id="Oval" cx="19.5" cy="14.5" r="1.5"/>
        <circle id="Oval" cx="13.5" cy="14.5" r="1.5"/>
        <circle id="Oval" cx="7.5" cy="14.5" r="1.5"/>
      </g>
    </g>
  </g>
</svg>
